<svg xmlns="http://www.w3.org/2000/svg" xmlns:xlink="http://www.w3.org/1999/xlink" width="144" zoomAndPan="magnify" viewBox="0 0 108 30.000001" height="40" preserveAspectRatio="xMidYMid meet" version="1.0"><defs><g/><clipPath id="14be39f19c"><path d="M 4.644531 2.902344 L 26.886719 2.902344 L 26.886719 26.1875 L 4.644531 26.1875 Z M 4.644531 2.902344 " clip-rule="nonzero"/></clipPath><clipPath id="7a13365ce9"><path d="M 6.097656 2.902344 L 25.4375 2.902344 C 26.238281 2.902344 26.886719 3.554688 26.886719 4.355469 L 26.886719 24.675781 C 26.886719 25.480469 26.238281 26.128906 25.4375 26.128906 L 6.097656 26.128906 C 5.296875 26.128906 4.644531 25.480469 4.644531 24.675781 L 4.644531 4.355469 C 4.644531 3.554688 5.296875 2.902344 6.097656 2.902344 Z M 6.097656 2.902344 " clip-rule="nonzero"/></clipPath></defs><g clip-path="url(#14be39f19c)"><g clip-path="url(#7a13365ce9)"><path fill="#002855" d="M 4.644531 2.902344 L 26.886719 2.902344 L 26.886719 26.101562 L 4.644531 26.101562 Z M 4.644531 2.902344 " fill-opacity="1" fill-rule="nonzero"/></g></g><g fill="#ffffff" fill-opacity="1"><g transform="translate(10.683839, 20.690791)"><g><path d="M 9.640625 -13.03125 L 9.640625 -10.484375 L 4.328125 -10.484375 L 4.328125 -7.734375 L 8.296875 -7.734375 L 8.296875 -5.265625 L 4.328125 -5.265625 L 4.328125 0 L 1.15625 0 L 1.15625 -13.03125 Z M 9.640625 -13.03125 "/></g></g></g><g fill="#0d2438" fill-opacity="1"><g transform="translate(32.875309, 19.96074)"><g><path d="M 9.046875 -12.234375 L 9.046875 -9.84375 L 4.0625 -9.84375 L 4.0625 -7.265625 L 7.78125 -7.265625 L 7.78125 -4.953125 L 4.0625 -4.953125 L 4.0625 0 L 1.078125 0 L 1.078125 -12.234375 Z M 9.046875 -12.234375 "/></g></g></g><g fill="#0d2438" fill-opacity="1"><g transform="translate(42.403667, 19.96074)"><g><path d="M 2.578125 -10.734375 C 2.054688 -10.734375 1.628906 -10.882812 1.296875 -11.1875 C 0.960938 -11.5 0.796875 -11.878906 0.796875 -12.328125 C 0.796875 -12.796875 0.960938 -13.179688 1.296875 -13.484375 C 1.628906 -13.796875 2.054688 -13.953125 2.578125 -13.953125 C 3.085938 -13.953125 3.507812 -13.796875 3.84375 -13.484375 C 4.175781 -13.179688 4.34375 -12.796875 4.34375 -12.328125 C 4.34375 -11.878906 4.175781 -11.5 3.84375 -11.1875 C 3.507812 -10.882812 3.085938 -10.734375 2.578125 -10.734375 Z M 4.0625 -9.71875 L 4.0625 0 L 1.078125 0 L 1.078125 -9.71875 Z M 4.0625 -9.71875 "/></g></g></g><g fill="#0d2438" fill-opacity="1"><g transform="translate(47.542367, 19.96074)"><g><path d="M 4.0625 -8.09375 C 4.40625 -8.632812 4.835938 -9.054688 5.359375 -9.359375 C 5.890625 -9.671875 6.472656 -9.828125 7.109375 -9.828125 L 7.109375 -6.671875 L 6.296875 -6.671875 C 5.546875 -6.671875 4.984375 -6.507812 4.609375 -6.1875 C 4.242188 -5.875 4.0625 -5.316406 4.0625 -4.515625 L 4.0625 0 L 1.078125 0 L 1.078125 -9.71875 L 4.0625 -9.71875 Z M 4.0625 -8.09375 "/></g></g></g><g fill="#0d2438" fill-opacity="1"><g transform="translate(54.997831, 19.96074)"><g><path d="M 0.484375 -4.875 C 0.484375 -5.875 0.671875 -6.75 1.046875 -7.5 C 1.429688 -8.257812 1.945312 -8.84375 2.59375 -9.25 C 3.25 -9.65625 3.976562 -9.859375 4.78125 -9.859375 C 5.414062 -9.859375 5.992188 -9.722656 6.515625 -9.453125 C 7.046875 -9.191406 7.460938 -8.832031 7.765625 -8.375 L 7.765625 -12.890625 L 10.75 -12.890625 L 10.75 0 L 7.765625 0 L 7.765625 -1.390625 C 7.492188 -0.929688 7.097656 -0.5625 6.578125 -0.28125 C 6.054688 0 5.457031 0.140625 4.78125 0.140625 C 3.976562 0.140625 3.25 -0.0625 2.59375 -0.46875 C 1.945312 -0.882812 1.429688 -1.472656 1.046875 -2.234375 C 0.671875 -2.992188 0.484375 -3.875 0.484375 -4.875 Z M 7.765625 -4.859375 C 7.765625 -5.597656 7.554688 -6.179688 7.140625 -6.609375 C 6.734375 -7.046875 6.234375 -7.265625 5.640625 -7.265625 C 5.046875 -7.265625 4.539062 -7.050781 4.125 -6.625 C 3.71875 -6.207031 3.515625 -5.625 3.515625 -4.875 C 3.515625 -4.132812 3.71875 -3.546875 4.125 -3.109375 C 4.539062 -2.671875 5.046875 -2.453125 5.640625 -2.453125 C 6.234375 -2.453125 6.734375 -2.664062 7.140625 -3.09375 C 7.554688 -3.53125 7.765625 -4.117188 7.765625 -4.859375 Z M 7.765625 -4.859375 "/></g></g></g><g fill="#0d2438" fill-opacity="1"><g transform="translate(66.825544, 19.96074)"><g><path d="M 0.484375 -4.875 C 0.484375 -5.875 0.671875 -6.75 1.046875 -7.5 C 1.429688 -8.257812 1.945312 -8.84375 2.59375 -9.25 C 3.25 -9.65625 3.976562 -9.859375 4.78125 -9.859375 C 5.457031 -9.859375 6.054688 -9.71875 6.578125 -9.4375 C 7.097656 -9.164062 7.492188 -8.800781 7.765625 -8.34375 L 7.765625 -9.71875 L 10.75 -9.71875 L 10.75 0 L 7.765625 0 L 7.765625 -1.375 C 7.472656 -0.925781 7.066406 -0.5625 6.546875 -0.28125 C 6.035156 0 5.4375 0.140625 4.75 0.140625 C 3.96875 0.140625 3.25 -0.0625 2.59375 -0.46875 C 1.945312 -0.882812 1.429688 -1.472656 1.046875 -2.234375 C 0.671875 -2.992188 0.484375 -3.875 0.484375 -4.875 Z M 7.765625 -4.859375 C 7.765625 -5.597656 7.554688 -6.179688 7.140625 -6.609375 C 6.734375 -7.046875 6.234375 -7.265625 5.640625 -7.265625 C 5.046875 -7.265625 4.539062 -7.050781 4.125 -6.625 C 3.71875 -6.207031 3.515625 -5.625 3.515625 -4.875 C 3.515625 -4.132812 3.71875 -3.546875 4.125 -3.109375 C 4.539062 -2.671875 5.046875 -2.453125 5.640625 -2.453125 C 6.234375 -2.453125 6.734375 -2.664062 7.140625 -3.09375 C 7.554688 -3.53125 7.765625 -4.117188 7.765625 -4.859375 Z M 7.765625 -4.859375 "/></g></g></g><g fill="#0d2438" fill-opacity="1"><g transform="translate(78.653256, 19.96074)"><g><path d="M 10.671875 -9.71875 L 10.671875 0 L 7.703125 0 L 7.703125 -1.328125 C 7.398438 -0.890625 6.988281 -0.539062 6.46875 -0.28125 C 5.957031 -0.0195312 5.382812 0.109375 4.75 0.109375 C 4.007812 0.109375 3.351562 -0.0546875 2.78125 -0.390625 C 2.21875 -0.722656 1.78125 -1.203125 1.46875 -1.828125 C 1.15625 -2.453125 1 -3.191406 1 -4.046875 L 1 -9.71875 L 3.953125 -9.71875 L 3.953125 -4.4375 C 3.953125 -3.789062 4.117188 -3.285156 4.453125 -2.921875 C 4.796875 -2.566406 5.25 -2.390625 5.8125 -2.390625 C 6.394531 -2.390625 6.851562 -2.566406 7.1875 -2.921875 C 7.53125 -3.285156 7.703125 -3.789062 7.703125 -4.4375 L 7.703125 -9.71875 Z M 10.671875 -9.71875 "/></g></g></g><g fill="#0d2438" fill-opacity="1"><g transform="translate(90.393864, 19.96074)"><g><path d="M 5.03125 0.140625 C 4.1875 0.140625 3.429688 -0.00390625 2.765625 -0.296875 C 2.109375 -0.585938 1.585938 -0.984375 1.203125 -1.484375 C 0.816406 -1.992188 0.601562 -2.5625 0.5625 -3.1875 L 3.5 -3.1875 C 3.53125 -2.851562 3.6875 -2.582031 3.96875 -2.375 C 4.25 -2.164062 4.59375 -2.0625 5 -2.0625 C 5.375 -2.0625 5.660156 -2.128906 5.859375 -2.265625 C 6.066406 -2.410156 6.171875 -2.601562 6.171875 -2.84375 C 6.171875 -3.125 6.023438 -3.328125 5.734375 -3.453125 C 5.441406 -3.585938 4.972656 -3.738281 4.328125 -3.90625 C 3.628906 -4.0625 3.046875 -4.226562 2.578125 -4.40625 C 2.109375 -4.59375 1.707031 -4.878906 1.375 -5.265625 C 1.039062 -5.660156 0.875 -6.1875 0.875 -6.84375 C 0.875 -7.40625 1.023438 -7.914062 1.328125 -8.375 C 1.640625 -8.832031 2.09375 -9.191406 2.6875 -9.453125 C 3.289062 -9.722656 4.003906 -9.859375 4.828125 -9.859375 C 6.046875 -9.859375 7.003906 -9.554688 7.703125 -8.953125 C 8.410156 -8.347656 8.816406 -7.546875 8.921875 -6.546875 L 6.171875 -6.546875 C 6.117188 -6.890625 5.96875 -7.15625 5.71875 -7.34375 C 5.46875 -7.539062 5.140625 -7.640625 4.734375 -7.640625 C 4.390625 -7.640625 4.125 -7.570312 3.9375 -7.4375 C 3.75 -7.3125 3.65625 -7.132812 3.65625 -6.90625 C 3.65625 -6.625 3.800781 -6.410156 4.09375 -6.265625 C 4.394531 -6.128906 4.859375 -5.992188 5.484375 -5.859375 C 6.203125 -5.671875 6.785156 -5.484375 7.234375 -5.296875 C 7.691406 -5.117188 8.09375 -4.828125 8.4375 -4.421875 C 8.78125 -4.023438 8.957031 -3.492188 8.96875 -2.828125 C 8.96875 -2.253906 8.804688 -1.742188 8.484375 -1.296875 C 8.171875 -0.847656 7.710938 -0.492188 7.109375 -0.234375 C 6.515625 0.015625 5.820312 0.140625 5.03125 0.140625 Z M 5.03125 0.140625 "/></g></g></g></svg>